<svg width="400" height="400" viewBox="0 0 400 400" xmlns="http://www.w3.org/2000/svg">
  <defs>
    <radialGradient id="faceGradient" cx="50%" cy="50%" r="50%">
      <stop offset="0%" stop-color="#fafafa" stop-opacity="1" />
      <stop offset="100%" stop-color="#e0e0e0" stop-opacity="0.3" />
    </radialGradient>
  </defs>
  
  <!-- Clock face -->
  <circle cx="200" cy="200" r="190" fill="url(#faceGradient)" stroke="#e0e0e0" stroke-width="2" />
  
  <!-- Ticks -->
<line x1="200" y1="25" x2="200" y2="12" stroke="#9e9e9e" stroke-width="2" />
<line x1="219.02418031471294" y1="18.997015042974255" x2="219.65135109431884" y2="13.029883670764633" stroke="#9e9e9e" stroke-width="1" />
<line x1="237.8399277288322" y1="21.977136666447393" x2="239.08739787373878" y2="16.10825106204456" stroke="#9e9e9e" stroke-width="1" />
<line x1="256.24109297624045" y1="26.907714034282066" x2="258.09519494249014" y2="21.201374936511144" stroke="#9e9e9e" stroke-width="1" />
<line x1="274.02606903979563" y1="33.73472670904664" x2="276.4664888982504" y2="28.25345396319105" stroke="#9e9e9e" stroke-width="1" />
<line x1="287.5" y1="48.44555433772325" x2="294" y2="37.18722408852554" stroke="#9e9e9e" stroke-width="2" />
<line x1="306.97691591723014" y1="52.758907023759576" x2="310.5036274309849" y2="47.90480505750989" stroke="#9e9e9e" stroke-width="1" />
<line x1="321.7817703573122" y1="64.74764176311425" x2="325.79655399546533" y2="60.288772810249895" stroke="#9e9e9e" stroke-width="1" />
<line x1="335.25235823688575" y1="78.2182296426878" x2="339.7112271897501" y2="74.20344600453465" stroke="#9e9e9e" stroke-width="1" />
<line x1="347.24109297624045" y1="93.02308408276988" x2="352.09519494249014" y2="89.49637256901505" stroke="#9e9e9e" stroke-width="1" />
<line x1="351.55444566227675" y1="112.50000000000001" x2="362.8127759114745" y2="106.00000000000001" stroke="#9e9e9e" stroke-width="2" />
<line x1="366.26527329095336" y1="125.97393096020437" x2="371.7465460368089" y2="123.53351110174957" stroke="#9e9e9e" stroke-width="1" />
<line x1="373.0922859657179" y1="143.75890702375958" x2="378.7986250634889" y2="141.9048050575099" stroke="#9e9e9e" stroke-width="1" />
<line x1="378.02286333355266" y1="162.1600722711678" x2="383.89174893795547" y2="160.91260212626125" stroke="#9e9e9e" stroke-width="1" />
<line x1="381.0029849570258" y1="180.97581968528706" x2="386.97011632923534" y2="180.34864890568116" stroke="#9e9e9e" stroke-width="1" />
<line x1="375" y1="200" x2="388" y2="200" stroke="#9e9e9e" stroke-width="2" />
<line x1="381.0029849570258" y1="219.02418031471294" x2="386.97011632923534" y2="219.65135109431884" stroke="#9e9e9e" stroke-width="1" />
<line x1="378.02286333355266" y1="237.8399277288322" x2="383.89174893795547" y2="239.08739787373875" stroke="#9e9e9e" stroke-width="1" />
<line x1="373.0922859657179" y1="256.24109297624045" x2="378.7986250634889" y2="258.09519494249014" stroke="#9e9e9e" stroke-width="1" />
<line x1="366.26527329095336" y1="274.02606903979563" x2="371.7465460368089" y2="276.4664888982504" stroke="#9e9e9e" stroke-width="1" />
<line x1="351.55444566227675" y1="287.5" x2="362.8127759114745" y2="294" stroke="#9e9e9e" stroke-width="2" />
<line x1="347.24109297624045" y1="306.97691591723014" x2="352.09519494249014" y2="310.5036274309849" stroke="#9e9e9e" stroke-width="1" />
<line x1="335.25235823688575" y1="321.7817703573122" x2="339.7112271897501" y2="325.79655399546533" stroke="#9e9e9e" stroke-width="1" />
<line x1="321.7817703573122" y1="335.25235823688575" x2="325.79655399546533" y2="339.7112271897501" stroke="#9e9e9e" stroke-width="1" />
<line x1="306.97691591723014" y1="347.24109297624045" x2="310.5036274309849" y2="352.09519494249014" stroke="#9e9e9e" stroke-width="1" />
<line x1="287.5" y1="351.55444566227675" x2="294" y2="362.81277591147443" stroke="#9e9e9e" stroke-width="2" />
<line x1="274.02606903979563" y1="366.26527329095336" x2="276.4664888982504" y2="371.7465460368089" stroke="#9e9e9e" stroke-width="1" />
<line x1="256.24109297624045" y1="373.0922859657179" x2="258.09519494249014" y2="378.7986250634889" stroke="#9e9e9e" stroke-width="1" />
<line x1="237.8399277288322" y1="378.0228633335526" x2="239.08739787373878" y2="383.8917489379554" stroke="#9e9e9e" stroke-width="1" />
<line x1="219.02418031471294" y1="381.0029849570258" x2="219.65135109431884" y2="386.97011632923534" stroke="#9e9e9e" stroke-width="1" />
<line x1="200" y1="375" x2="200" y2="388" stroke="#9e9e9e" stroke-width="2" />
<line x1="180.9758196852871" y1="381.0029849570258" x2="180.34864890568116" y2="386.9701163292354" stroke="#9e9e9e" stroke-width="1" />
<line x1="162.16007227116785" y1="378.02286333355266" x2="160.91260212626128" y2="383.89174893795547" stroke="#9e9e9e" stroke-width="1" />
<line x1="143.75890702375958" y1="373.09228596571796" x2="141.9048050575099" y2="378.7986250634889" stroke="#9e9e9e" stroke-width="1" />
<line x1="125.97393096020438" y1="366.26527329095336" x2="123.53351110174958" y2="371.746546036809" stroke="#9e9e9e" stroke-width="1" />
<line x1="112.50000000000004" y1="351.55444566227675" x2="106.00000000000004" y2="362.8127759114745" stroke="#9e9e9e" stroke-width="2" />
<line x1="93.02308408276991" y1="347.24109297624045" x2="89.49637256901507" y2="352.09519494249014" stroke="#9e9e9e" stroke-width="1" />
<line x1="78.2182296426878" y1="335.25235823688575" x2="74.20344600453465" y2="339.7112271897501" stroke="#9e9e9e" stroke-width="1" />
<line x1="64.74764176311427" y1="321.7817703573122" x2="60.288772810249895" y2="325.7965539954654" stroke="#9e9e9e" stroke-width="1" />
<line x1="52.758907023759576" y1="306.97691591723014" x2="47.90480505750989" y2="310.503627430985" stroke="#9e9e9e" stroke-width="1" />
<line x1="48.44555433772322" y1="287.5" x2="37.18722408852551" y2="294" stroke="#9e9e9e" stroke-width="2" />
<line x1="33.73472670904667" y1="274.0260690397957" x2="28.25345396319105" y2="276.4664888982505" stroke="#9e9e9e" stroke-width="1" />
<line x1="26.907714034282066" y1="256.24109297624045" x2="21.201374936511144" y2="258.09519494249014" stroke="#9e9e9e" stroke-width="1" />
<line x1="21.977136666447365" y1="237.8399277288322" x2="16.10825106204453" y2="239.08739787373875" stroke="#9e9e9e" stroke-width="1" />
<line x1="18.997015042974255" y1="219.02418031471296" x2="13.029883670764633" y2="219.6513510943189" stroke="#9e9e9e" stroke-width="1" />
<line x1="25" y1="200.00000000000003" x2="12" y2="200.00000000000003" stroke="#9e9e9e" stroke-width="2" />
<line x1="18.997015042974255" y1="180.97581968528715" x2="13.029883670764605" y2="180.34864890568122" stroke="#9e9e9e" stroke-width="1" />
<line x1="21.977136666447365" y1="162.16007227116785" x2="16.10825106204453" y2="160.9126021262613" stroke="#9e9e9e" stroke-width="1" />
<line x1="26.907714034282066" y1="143.75890702375952" x2="21.201374936511144" y2="141.90480505750983" stroke="#9e9e9e" stroke-width="1" />
<line x1="33.73472670904661" y1="125.97393096020443" x2="28.253453963190992" y2="123.53351110174964" stroke="#9e9e9e" stroke-width="1" />
<line x1="48.44555433772325" y1="112.49999999999999" x2="37.18722408852554" y2="105.99999999999999" stroke="#9e9e9e" stroke-width="2" />
<line x1="52.758907023759576" y1="93.02308408276991" x2="47.90480505750989" y2="89.49637256901507" stroke="#9e9e9e" stroke-width="1" />
<line x1="64.74764176311425" y1="78.2182296426878" x2="60.288772810249895" y2="74.20344600453465" stroke="#9e9e9e" stroke-width="1" />
<line x1="78.21822964268776" y1="64.7476417631143" x2="74.20344600453461" y2="60.288772810249924" stroke="#9e9e9e" stroke-width="1" />
<line x1="93.02308408276987" y1="52.758907023759576" x2="89.49637256901502" y2="47.90480505750989" stroke="#9e9e9e" stroke-width="1" />
<line x1="112.49999999999993" y1="48.44555433772325" x2="105.99999999999991" y2="37.18722408852557" stroke="#9e9e9e" stroke-width="2" />
<line x1="125.97393096020438" y1="33.73472670904661" x2="123.53351110174958" y2="28.25345396319102" stroke="#9e9e9e" stroke-width="1" />
<line x1="143.75890702375955" y1="26.907714034282066" x2="141.90480505750986" y2="21.201374936511144" stroke="#9e9e9e" stroke-width="1" />
<line x1="162.16007227116773" y1="21.977136666447393" x2="160.91260212626116" y2="16.10825106204456" stroke="#9e9e9e" stroke-width="1" />
<line x1="180.9758196852871" y1="18.997015042974255" x2="180.34864890568116" y2="13.029883670764605" stroke="#9e9e9e" stroke-width="1" />

  
  <!-- Hour hand -->
  <line x1="200" y1="200" x2="294.8698058016845" y2="195.02808415692033" stroke="#424242" stroke-width="4" stroke-linecap="round" />
  
  <!-- Minute hand -->
  <line x1="200" y1="200" x2="126.82037158171082" y2="77.72575093438061" stroke="#616161" stroke-width="3" stroke-linecap="round" />
  
    <line x1="200" y1="200" x2="69.34375540844599" y2="105.07268175476561" stroke="#f44336" stroke-width="1" />

  <!-- Center dot -->
  <circle cx="200" cy="200" r="4" fill="#424242" />
</svg>