<?xml version="1.0" encoding="UTF-8"?>
<svg xmlns="http://www.w3.org/2000/svg" width="800" height="600" viewBox="0 0 800 600">
  <!-- Created with Geometry Plotter -->
  <rect width="100%" height="100%" fill="#ffffff"/>
  
  <!-- Background decorative elements -->
  <rect x="50" y="50" width="200" height="150" rx="20" fill="#e8f4f8" stroke="#3498db" stroke-width="2" opacity="1"/>
  <ellipse cx="400" cy="125" rx="120" ry="60" fill="#fff3cd" stroke="#f39c12" stroke-width="2" opacity="0.9"/>
  <circle cx="650" cy="125" r="70" fill="#f8d7da" stroke="#e74c3c" stroke-width="2" opacity="0.9"/>
  
  <!-- Main composition -->
  <rect x="100" y="250" width="150" height="100" rx="0" fill="#3498db" stroke="#2980b9" stroke-width="3" opacity="1"/>
  <rect x="300" y="250" width="100" height="100" rx="50" fill="#9b59b6" stroke="#8e44ad" stroke-width="2" opacity="0.8"/>
  <circle cx="550" cy="300" r="60" fill="#e74c3c" stroke="#c0392b" stroke-width="2" opacity="0.85"/>
  <ellipse cx="700" cy="300" rx="80" ry="40" fill="#2ecc71" stroke="#27ae60" stroke-width="2" opacity="0.75"/>
  
  <!-- Polygon examples -->
  <polygon points="200,450 260,480 260,540 200,570 140,540 140,480" fill="#f39c12" stroke="#d35400" stroke-width="2" opacity="0.9"/>
  <polygon points="400,420 450,470 420,535 360,535 330,470" fill="#1abc9c" stroke="#16a085" stroke-width="2" opacity="0.85"/>
  <polygon points="600,420 625,470 700,485 650,535 665,600 600,570 535,600 550,535 500,485 575,470" fill="#9b59b6" stroke="#8e44ad" stroke-width="2" opacity="0.8"/>
  
  <!-- Line art -->
  <line x1="100" y1="500" x2="300" y2="550" stroke="#34495e" stroke-width="4" opacity="1"/>
  <line x1="500" y1="100" x2="750" y2="350" stroke="#2c3e50" stroke-width="2" stroke-dasharray="5,5" opacity="0.6"/>
</svg>
